<?xml version="1.0" encoding="utf-8"?>
<!-- Generator: Adobe Illustrator 23.1.1, SVG Export Plug-In . SVG Version: 6.00 Build 0)  -->
<svg version="1.1" id="图层_1" xmlns="http://www.w3.org/2000/svg" xmlns:xlink="http://www.w3.org/1999/xlink" x="0px" y="0px"
	 viewBox="0 0 36 36" style="enable-background:new 0 0 36 36;" xml:space="preserve">
<style type="text/css">
	.st0{fill:#2C8EF6;}
</style>
<path class="st0" d="M25.81,19.04"/>
<path class="st0" d="M18,0C8.08,0,0,8.07,0,18c0,9.92,8.08,18,18,18c9.92,0,18-8.07,18-18C36,8.08,27.93,0,18,0z M14,24
	c0,1.1-0.9,2-2,2s-2-0.9-2-2V12c0-1.1,0.9-2,2-2s2,0.9,2,2V24z M26,24c0,1.1-0.9,2-2,2s-2-0.9-2-2V12c0-1.1,0.9-2,2-2s2,0.9,2,2V24z
	"/>
</svg>
