<?xml version="1.0" encoding="utf-8"?>
<!-- Generator: Adobe Illustrator 23.1.1, SVG Export Plug-In . SVG Version: 6.00 Build 0)  -->
<svg version="1.1" id="图层_1" xmlns="http://www.w3.org/2000/svg" xmlns:xlink="http://www.w3.org/1999/xlink" x="0px" y="0px"
	 viewBox="0 0 18 18" style="enable-background:new 0 0 18 18;" xml:space="preserve">
<style type="text/css">
	.st0{fill:#47BDDA;}
</style>
<path class="st0" d="M9.78,0.34l8.8,8.07c0.22,0.21,0.3,0.53,0.19,0.81c-0.11,0.28-0.38,0.47-0.69,0.47l-0.87,0v6.46
	c0,0.49-0.19,0.96-0.54,1.3c-0.35,0.35-0.82,0.54-1.3,0.54H2.45c-0.49,0-0.96-0.19-1.3-0.54c-0.35-0.35-0.54-0.82-0.54-1.3V9.69
	h-0.87c-0.3,0-0.58-0.19-0.69-0.47c-0.11-0.28-0.04-0.61,0.19-0.81l8.8-8.07C8.53-0.11,9.29-0.11,9.78,0.34L9.78,0.34z M4.54,10.94
	c-0.36,0.36-0.36,0.94,0,1.3c2.36,2.36,6.2,2.36,8.56,0c0.35-0.36,0.34-0.94-0.01-1.29c-0.36-0.36-0.93-0.36-1.29-0.01
	c-1.64,1.64-4.31,1.64-5.95,0c-0.17-0.17-0.41-0.27-0.65-0.27C4.95,10.67,4.71,10.76,4.54,10.94L4.54,10.94z M4.54,10.94"/>
</svg>
