<?xml version="1.0" encoding="utf-8"?>
<!-- Generator: Adobe Illustrator 23.1.1, SVG Export Plug-In . SVG Version: 6.00 Build 0)  -->
<svg version="1.1" id="图层_1" xmlns="http://www.w3.org/2000/svg" xmlns:xlink="http://www.w3.org/1999/xlink" x="0px" y="0px"
	 viewBox="0 0 48 48" style="enable-background:new 0 0 48 48;" xml:space="preserve">
<style type="text/css">
	.st0{fill:#FF9831;}
</style>
<g>
	<path class="st0" d="M24.71-0.09c-3,0-5.45,2.45-5.45,5.45c0,3,2.45,5.45,5.45,5.45s5.45-2.45,5.45-5.45
		C30.16,2.35,27.72-0.09,24.71-0.09L24.71-0.09z M37.5,5.09c-2.42,0-4.36,1.94-4.36,4.36c0,2.42,1.94,4.36,4.36,4.36
		c2.42,0,4.36-1.97,4.36-4.36C41.86,7.03,39.92,5.09,37.5,5.09L37.5,5.09z M16.58,27.26l-0.08,1.38v0.05l0.93,15.95h-4.17
		l-0.69-13.59h-1.78L9.93,44.65H6.02L6.64,28.7l-0.29-6.46l-3.59,5.13L1,25.93l5.1-11.27h2.98l2.84,3.38l2.74-3.35h2.29l1.09-2.5
		h5.69l-0.43,0.72l0.56,1.14l-1.22,8.77l1.91,1.94v0.16l0.08-0.08l0.08,0.08v-0.16l1.91-1.94l-1.22-8.77l0.56-1.14l-0.43-0.72h5.74
		l0.77,2.5h2.66l2.84,3.38l2.76-3.38h2.53l4.73,10.5l-1.89,1.62l-3.16-5.32l-0.37,7.18v0.05l0.93,15.95h-4.17l-0.69-13.59h-1.75
		l-0.85,13.59h-3.91l0.61-15.95l-0.05-1.14l-1.62,1.36L31.36,48h-4.68l-1.04-16.24h-2.13L22.69,48h-4.95l1.09-19.06L16.58,27.26z
		 M11.82,5.09c-2.42,0-4.36,1.94-4.36,4.36c0,2.42,1.97,4.36,4.36,4.36c2.42,0,4.36-1.97,4.36-4.36
		C16.21,7.03,14.24,5.09,11.82,5.09L11.82,5.09z M11.82,5.09"/>
</g>
</svg>
