<?xml version="1.0" encoding="utf-8"?>
<!-- Generator: Adobe Illustrator 23.1.1, SVG Export Plug-In . SVG Version: 6.00 Build 0)  -->
<svg version="1.1" id="图层_1" xmlns="http://www.w3.org/2000/svg" xmlns:xlink="http://www.w3.org/1999/xlink" x="0px" y="0px"
	 viewBox="0 0 48 48" style="enable-background:new 0 0 48 48;" xml:space="preserve">
<style type="text/css">
	.st0{fill:#FF9831;}
</style>
<path class="st0" d="M24.52,20.93h-1.4c-0.19,0-0.35,0.16-0.35,0.35c0,0.19,0.16,0.35,0.35,0.35h1.4c0.19,0,0.35-0.16,0.35-0.35
	C24.87,21.08,24.71,20.93,24.52,20.93z"/>
<path class="st0" d="M43.44,20.93h-1.4c-0.19,0-0.35,0.16-0.35,0.35c0,0.19,0.16,0.35,0.35,0.35h1.4c0.19,0,0.35-0.16,0.35-0.35
	C43.79,21.08,43.64,20.93,43.44,20.93z"/>
<path class="st0" d="M102.52,25.19c-13.25,0-24,9.18-24,20.5c0,10.18,8.7,18.63,20.09,20.23l3.91,7.27l3.91-7.27
	c11.39-1.6,20.09-10.04,20.09-20.23C126.52,34.36,115.78,25.19,102.52,25.19z"/>
<g>
	<path class="st0" d="M43.79,29.29H22.76c-2.13,0-3.86,1.73-3.86,3.86c0,2.13,1.73,3.86,3.86,3.86h21.03c2.13,0,3.86-1.73,3.86-3.86
		C47.65,31.01,45.92,29.29,43.79,29.29z M24.87,34.9c-0.97,0-1.75-0.78-1.75-1.75s0.78-1.75,1.75-1.75c0.97,0,1.75,0.78,1.75,1.75
		S25.83,34.9,24.87,34.9z M34.52,34.73c-0.68,0.68-1.79,0.68-2.48,0s-0.68-1.79,0-2.48c0.68-0.68,1.79-0.68,2.48,0
		C35.2,32.94,35.2,34.05,34.52,34.73z M42.93,34.73c-0.68,0.68-1.79,0.68-2.48,0s-0.68-1.79,0-2.48c0.68-0.68,1.79-0.68,2.48,0
		C43.61,32.94,43.61,34.05,42.93,34.73z"/>
	<path class="st0" d="M43.44,17.72h0.18v-8.5c1.4-0.32,2.45-1.57,2.45-3.07c0-1.74-1.41-3.15-3.15-3.15s-3.15,1.41-3.15,3.15
		c0,1.5,1.05,2.75,2.45,3.07v8.5h-2.63V13.5c0-1.15-0.94-2.09-2.09-2.09h-8.27c-1.24,0-2.25,1.01-2.25,2.25v4.06h-3.86
		c-1.61,0-3.03,0.84-3.84,2.1h-7.65c-0.63,0-1.13,0.51-1.13,1.13v0.27H0.68c-0.39,0-0.7,0.31-0.7,0.7c0,0.39,0.31,0.7,0.7,0.7h9.81
		v0.27c0,0.63,0.51,1.13,1.13,1.13h7.28c0.69,1.65,2.31,2.8,4.21,2.8h20.33c2.52,0,4.56-2.04,4.56-4.56
		C48,19.76,45.96,17.72,43.44,17.72z M28.3,22.63h-1.4c-0.19,0-0.35-0.16-0.35-0.35c0-0.19,0.16-0.35,0.35-0.35h1.4
		c0.19,0,0.35,0.16,0.35,0.35C28.65,22.47,28.49,22.63,28.3,22.63z M32.09,22.63h-1.4c-0.19,0-0.35-0.16-0.35-0.35
		c0-0.19,0.16-0.35,0.35-0.35h1.4c0.19,0,0.35,0.16,0.35,0.35C32.44,22.47,32.28,22.63,32.09,22.63z M35.87,22.63h-1.4
		c-0.19,0-0.35-0.16-0.35-0.35c0-0.19,0.16-0.35,0.35-0.35h1.4c0.19,0,0.35,0.16,0.35,0.35C36.22,22.47,36.07,22.63,35.87,22.63z
		 M39.66,22.63h-1.4c-0.19,0-0.35-0.16-0.35-0.35c0-0.19,0.16-0.35,0.35-0.35h1.4c0.19,0,0.35,0.16,0.35,0.35
		C40.01,22.47,39.85,22.63,39.66,22.63z"/>
</g>
</svg>
