<?xml version="1.0" encoding="utf-8"?>
<!-- Generator: Adobe Illustrator 23.1.1, SVG Export Plug-In . SVG Version: 6.00 Build 0)  -->
<svg version="1.1" id="图层_1" xmlns="http://www.w3.org/2000/svg" xmlns:xlink="http://www.w3.org/1999/xlink" x="0px" y="0px"
	 viewBox="0 0 48 48" style="enable-background:new 0 0 48 48;" xml:space="preserve">
<style type="text/css">
	.st0{fill:none;}
	.st1{fill:#FF9831;}
	.st2{fill:#666666;}
</style>
<g>
	<rect y="0.2" class="st0" width="48" height="40.7"/>
	<path class="st1" d="M37,9.8c-0.2-0.3-0.6-0.3-0.9-0.1c-2.2,2-5.2,4.7-12,4.7c-7,0-10.1-2.8-12.1-4.7c-0.3-0.2-0.7-0.2-0.9,0.1
		c-0.3,0.3-0.2,0.7,0,0.9c1.1,1,2.4,2,3.9,2.9v9.8c0,0.4,0.3,0.6,0.6,0.6s0.7-0.3,0.7-0.6v-9.1c0.9,0.4,1.9,0.7,3,1v8.2
		c0,0.4,0.3,0.6,0.6,0.6c0.4,0,0.6-0.3,0.6-0.6v-7.9c0.9,0.1,1.9,0.2,3,0.3v7.7c0,0.4,0.3,0.6,0.6,0.6c0.4,0,0.6-0.3,0.6-0.6v-7.7
		c1.1,0,2.1-0.1,3-0.3v8c0,0.4,0.3,0.6,0.6,0.6c0.4,0,0.6-0.3,0.6-0.6v-8.2c1.1-0.3,2.1-0.6,3-1v9.3c0,0.4,0.3,0.6,0.7,0.6
		s0.7-0.3,0.7-0.6v-10c1.5-0.9,2.6-1.8,3.5-2.7C37.2,10.5,37.2,10.1,37,9.8L37,9.8z"/>
	<path class="st1" d="M47.3,22.7h-1.1L40.7,13V5.6C40.7,5.3,40.4,5,40,5h-3.5c-0.4,0-0.7,0.3-0.7,0.7v17.1H12.1V5.6
		c0-0.4-0.3-0.7-0.6-0.7H7.9C7.6,5,7.3,5.3,7.3,5.6V13l-5.7,9.7h-1C0.3,22.7,0,23,0,23.4v5C0,28.7,0.3,29,0.6,29h6.6v3
		c0,0.4,0.3,0.6,0.7,0.6h3.5c0.4,0,0.6-0.3,0.6-0.6v-3h23.7v3c0,0.4,0.3,0.6,0.7,0.6H40c0.4,0,0.7-0.3,0.7-0.6v-3h6.7
		c0.4,0,0.7-0.3,0.7-0.6v-5C48,23,47.7,22.7,47.3,22.7z M4.6,22.7H3l1.5-2.6C4.6,20.1,4.6,22.7,4.6,22.7z M7.2,22.7H5.9v-4.8
		l1.4-2.3C7.2,15.6,7.2,22.7,7.2,22.7z M41.9,22.7h-1.3v-7.1l1.3,2.2V22.7z M43.2,22.7v-2.6l1.5,2.6H43.2z"/>
	<path class="st1" d="M12.8,41.3h-10c-0.4,0-0.6,0.3-0.6,0.7s0.3,0.7,0.7,0.7H13c0.4,0,0.6-0.3,0.6-0.7
		C13.5,41.6,13.2,41.3,12.8,41.3L12.8,41.3z"/>
	<path class="st1" d="M22.4,34.9H14c-0.4,0-0.6,0.3-0.6,0.7s0.3,0.7,0.6,0.7h8.4c0.4,0,0.6-0.3,0.6-0.7S22.8,34.9,22.4,34.9
		L22.4,34.9z"/>
	<path class="st1" d="M38.9,38.2c0-0.4-0.3-0.7-0.7-0.7H26.7c-0.4,0-0.6,0.3-0.6,0.7s0.3,0.7,0.6,0.7h11.5
		C38.6,38.9,38.9,38.6,38.9,38.2L38.9,38.2z"/>
	<path class="st1" d="M46.7,41.3h-9.4c-0.4,0-0.7,0.3-0.7,0.7s0.3,0.7,0.7,0.7h9.4c0.4,0,0.7-0.3,0.7-0.7
		C47.3,41.6,47,41.3,46.7,41.3L46.7,41.3z"/>
</g>
<path class="st2" d="M46.7,41.3"/>
</svg>
