<?xml version="1.0" encoding="utf-8"?>
<!-- Generator: Adobe Illustrator 23.1.1, SVG Export Plug-In . SVG Version: 6.00 Build 0)  -->
<svg version="1.1" id="图层_1" xmlns="http://www.w3.org/2000/svg" xmlns:xlink="http://www.w3.org/1999/xlink" x="0px" y="0px"
	 viewBox="0 0 48 48" style="enable-background:new 0 0 48 48;" xml:space="preserve">
<style type="text/css">
	.st0{fill:#666666;}
	.st1{fill:none;}
	.st2{fill:#FF9831;}
</style>
<path d="M45.45,30.01C45.46,30.04,45.45,29.99,45.45,30.01L45.45,30.01z M45.45,30.01"/>
<path class="st0" d="M16.37,42.53"/>
<rect x="0.09" y="0.22" class="st1" width="47.91" height="47.78"/>
<path class="st0" d="M31.03,39.69"/>
<rect x="0.09" y="0.22" class="st1" width="47.91" height="47.78"/>
<g>
	<path class="st0" d="M34.74,34.48"/>
	<path class="st2" d="M45.59,31.12c-0.11-1.03-0.12-1.26-0.12-1.29c0-0.04-0.03-0.16-0.09-0.61l-16.35,0.04v-1.56l0.15,0.1
		c0.38,0.26,0.91,0.17,1.17-0.22l0.01-0.02l2.13-3.04c0.13-0.19,0.18-0.42,0.14-0.65c-0.04-0.22-0.17-0.42-0.36-0.55l-1.21-0.83
		l8.38-11.99c0.27-0.39,0.17-0.93-0.22-1.2l-1.13-0.78l2.96-4.24c0.13-0.19,0.18-0.42,0.14-0.64c-0.04-0.23-0.17-0.43-0.36-0.55
		l-4.25-2.92c-0.39-0.27-0.92-0.17-1.19,0.22l-2.97,4.26l-1.23-0.84c-0.39-0.27-0.92-0.17-1.19,0.22L21.6,16l-1.73-1.19
		c-0.39-0.27-0.92-0.17-1.19,0.22l-2.12,3.04c-0.13,0.19-0.18,0.42-0.14,0.65c0.04,0.22,0.17,0.42,0.36,0.55l1.96,1.35v8.65
		L2.33,29.32H0v6.99h36.48l3.49,10.48H48L45.59,31.12z M26.62,28.95h-5.48v-6.68l5.48,3.77V28.95z"/>
	<path class="st2" d="M21.19,47.66c-2.68,0.62-5.4-0.86-6.33-3.46h-2.38c-0.76,2.16-2.8,3.6-5.09,3.6c-0.19,0-0.37-0.01-0.55-0.03
		c-2.67-0.27-4.74-2.45-4.87-5.14c-0.13-2.68,1.73-5.05,4.36-5.57c2.63-0.52,5.25,0.97,6.15,3.49h2.38c0.78-2.15,2.81-3.59,5.1-3.6
		c2.75,0,5.07,2.06,5.38,4.8C25.66,44.5,23.88,47.03,21.19,47.66z"/>
	<path class="st2" d="M34.72,46.09c-0.98,0.98-2.32,1.54-3.71,1.54c-2.9,0-5.25-2.35-5.25-5.25c0-2.9,2.35-5.25,5.25-5.25
		s5.25,2.35,5.25,5.25C36.26,43.77,35.71,45.11,34.72,46.09z"/>
</g>
</svg>
