<?xml version="1.0" encoding="utf-8"?>
<!-- Generator: Adobe Illustrator 23.1.1, SVG Export Plug-In . SVG Version: 6.00 Build 0)  -->
<svg version="1.1" id="图层_1" xmlns="http://www.w3.org/2000/svg" xmlns:xlink="http://www.w3.org/1999/xlink" x="0px" y="0px"
	 viewBox="0 0 48 48" style="enable-background:new 0 0 48 48;" xml:space="preserve">
<style type="text/css">
	.st0{fill:#FF9831;}
</style>
<path class="st0" d="M14.8,3.9c0-1.05,0.85-1.9,1.9-1.9h15.42c1.05,0,1.9,0.85,1.9,1.9v2.53H14.8V3.9z"/>
<path class="st0" d="M9.18,10.04c0-1.05,0.85-1.9,1.9-1.9h28.57c1.05,0,1.9,0.85,1.9,1.9v8.47L25.98,13.2
	c-0.05-0.02-0.11-0.02-0.16-0.03c-0.07-0.02-0.15-0.04-0.23-0.05c-0.08-0.01-0.15-0.01-0.23-0.01c-0.08,0-0.14-0.01-0.22,0.01
	c-0.08,0.01-0.16,0.03-0.24,0.05c-0.05,0.02-0.1,0.02-0.16,0.03L9.18,18.52V10.04z"/>
<path class="st0" d="M47.63,41.07c-0.14,0.18-3.4,4.47-9.78,4.47c-3.26,0-5.89-0.75-8.44-1.46c-2.01-0.57-3.91-1.1-5.98-1.22
	c-1.79-0.1-3.35,0.32-5.16,0.8c-2.06,0.55-4.41,1.19-7.47,1.14c-6.18-0.07-10.1-4.02-10.26-4.19c-0.73-0.75-0.71-1.96,0.04-2.69
	c0.75-0.73,1.95-0.71,2.68,0.03c0.06,0.07,2.38,2.33,6,2.91L2.8,24.58c-0.19-0.48-0.18-1.02,0.04-1.5c0.22-0.47,0.62-0.84,1.11-1
	l19.84-6.78c0.05-0.02,0.1-0.02,0.16-0.03c0.08-0.02,0.16-0.04,0.24-0.05c0.08-0.01,0.14-0.01,0.22-0.01c0.08,0,0.15-0.01,0.23,0.01
	c0.08,0.01,0.16,0.03,0.23,0.05c0.05,0.01,0.11,0.02,0.16,0.03l19.84,6.78c0.49,0.17,0.9,0.53,1.11,1c0.22,0.47,0.24,1.01,0.04,1.5
	l-6.76,17.07c3.5-0.51,5.3-2.81,5.32-2.84c0.63-0.84,1.81-1.02,2.65-0.39C48.07,39.05,48.25,40.24,47.63,41.07z"/>
</svg>
