<?xml version="1.0" encoding="utf-8"?>
<!-- Generator: Adobe Illustrator 23.1.1, SVG Export Plug-In . SVG Version: 6.00 Build 0)  -->
<svg version="1.1" id="图层_1" xmlns="http://www.w3.org/2000/svg" xmlns:xlink="http://www.w3.org/1999/xlink" x="0px" y="0px"
	 viewBox="0 0 48 48" style="enable-background:new 0 0 48 48;" xml:space="preserve">
<style type="text/css">
	.st0{fill:#666666;}
	.st1{fill:#FF9831;}
</style>
<path class="st0" d="M131.68,101.35h-9.42c-0.36,0-0.65,0.29-0.65,0.65c0,0.36,0.29,0.65,0.65,0.65h9.42c0.36,0,0.65-0.29,0.65-0.65
	C132.33,101.63,132.04,101.35,131.68,101.35L131.68,101.35z"/>
<path class="st0" d="M131.68,101.35"/>
<g>
	<path class="st1" d="M2.96,29.62L0,28.11v-4.05h4.11C2.78,25.94,2.96,27.57,2.96,29.62z"/>
	<path class="st1" d="M34.05,28.77h-19.2c0.06-0.36,0.12-0.78,0.12-1.15c0-1.33-0.42-2.54-1.15-3.56h21.25
		c-0.72,0.97-1.15,2.23-1.15,3.56C33.93,28.05,33.99,28.41,34.05,28.77z"/>
	<path class="st1" d="M48,28.77h-2.11c0.06-0.36,0.12-0.78,0.12-1.15c0-1.39-0.48-2.66-1.27-3.68H48V28.77z"/>
	<path class="st1" d="M46.13,18.87l-11.05-1.21c-1.93-2.41-4.23-4.47-7.12-6.04H8.39c-2.84,2.35-5.07,4.95-6.46,7.85l-0.3,3.92h3.02
		l0.06-0.06c1.09-1.09,2.6-1.75,4.29-1.75c1.69,0,3.14,0.66,4.29,1.75l0.12,0.06h22.34l0.06-0.06c1.09-1.09,2.6-1.75,4.29-1.75
		c1.63,0,3.08,0.66,4.17,1.69h3.14l0.06-1.21L46.13,18.87z M24.62,13.72h2.8c2.41,1.09,3.98,2.49,5.55,3.94h-9.54L24.62,13.72z
		 M34.64,21.05h-2.17v-0.47h2.17V21.05z M34.64,20.01h-2.17v-0.47h2.17V20.01z M43.77,21.17c-0.91-0.42-1.21-2.11-1.21-2.11
		l3.08,0.3l1.03,2.42C46.67,21.77,44.62,21.59,43.77,21.17z"/>
	<path class="st1" d="M12.26,24.37c-0.85-0.78-1.99-1.33-3.26-1.33c-1.27,0-2.42,0.48-3.26,1.33c-0.85,0.85-1.33,1.99-1.33,3.26
		c0,1.27,0.48,2.42,1.33,3.26c0.85,0.78,1.99,1.33,3.26,1.33c1.27,0,2.41-0.48,3.26-1.33c0.78-0.85,1.33-1.99,1.33-3.26
		C13.59,26.36,13.1,25.21,12.26,24.37z M10.38,29.07c-0.36,0.36-0.91,0.6-1.45,0.6c-0.54,0-1.09-0.24-1.45-0.6
		c-0.36-0.36-0.6-0.91-0.6-1.45c0-0.54,0.24-1.09,0.6-1.45c0.36-0.36,0.91-0.6,1.45-0.6c0.54,0,1.09,0.24,1.45,0.6
		c0.42,0.36,0.6,0.91,0.6,1.45C10.99,28.17,10.75,28.71,10.38,29.07z"/>
	<path class="st1" d="M43.23,24.37c-0.85-0.78-1.99-1.33-3.26-1.33c-1.27,0-2.42,0.48-3.26,1.33c-0.78,0.85-1.33,1.99-1.33,3.26
		c0,1.27,0.48,2.42,1.33,3.26c0.85,0.78,1.99,1.33,3.26,1.33c1.27,0,2.41-0.48,3.26-1.33c0.79-0.85,1.33-1.99,1.33-3.26
		C44.56,26.36,44.08,25.21,43.23,24.37z M41.42,29.07c-0.36,0.36-0.91,0.6-1.45,0.6c-0.54,0-1.09-0.24-1.45-0.6
		c-0.36-0.36-0.6-0.91-0.6-1.45c0-0.54,0.24-1.09,0.6-1.45c0.36-0.36,0.91-0.6,1.45-0.6c0.6,0,1.09,0.24,1.45,0.6
		c0.36,0.36,0.6,0.91,0.6,1.45C42.02,28.17,41.78,28.71,41.42,29.07z"/>
</g>
</svg>
