<?xml version="1.0" encoding="utf-8"?>
<!-- Generator: Adobe Illustrator 23.1.1, SVG Export Plug-In . SVG Version: 6.00 Build 0)  -->
<svg version="1.1" id="图层_1" xmlns="http://www.w3.org/2000/svg" xmlns:xlink="http://www.w3.org/1999/xlink" x="0px" y="0px"
	 viewBox="0 0 48 48" style="enable-background:new 0 0 48 48;" xml:space="preserve">
<style type="text/css">
	.st0{fill:#FF9831;}
</style>
<path class="st0" d="M32.52,29.68l-2.24,2.15c0.65-0.02,1.24,0.36,1.5,0.95c0.17,0.38,0.18,0.82,0.02,1.21
	c-0.15,0.39-0.46,0.7-0.84,0.87L25,37.48c-1.5,1.9-3.18,4.02-4.05,4.45c-0.37,0.19-0.78,0.31-1.22,0.38l-2.32,0.38
	c-0.65,0.11-1.15-0.6-0.81-1.18l5.29-9l3.55-0.94c1.15-0.3,3.75-1.35,6.62-2.58C32.5,28.8,32.86,29.35,32.52,29.68z"/>
<path class="st0" d="M42.38,22.68c-2.5,1.26-14.61,6.74-17.31,7.46L7.74,34.75c-1.58,0.65-2.49-0.78-1.83-1.81L0.2,27.99
	c-0.15-0.12-0.23-0.31-0.19-0.5c0.03-0.19,0.17-0.35,0.35-0.41l0.78-0.27c0.68-0.24,1.41-0.28,2.11-0.12l9.25,2.07
	c2.17-1.31,4.37-2.59,6.59-3.82L2.41,13.49c-0.17-0.11-0.25-0.31-0.22-0.51c0.03-0.2,0.17-0.36,0.36-0.42l3.08-1.13
	c0.83-0.3,1.66-0.25,2.47,0.09l9.38,3.97l4.59-1.96c0.46-0.2,0.99-0.2,1.45-0.02c0.47,0.19,0.84,0.56,1.04,1.02
	c0.41,0.97-0.04,2.08-1,2.49l-0.82,0.35l7.19,2.15c3.03-1.3,6.05-2.4,9.01-3.17c1.16-0.31,2.86,0.13,4.49,0.27
	c2.1,0.19,3.85,0.01,4.49,1.27C48.75,19.54,43.42,22.25,42.38,22.68z"/>
</svg>
